<?xml version="1.0" encoding="UTF-8" standalone="no"?>
<svg
   version="1.1"
   width="2058"
   height="2048"
   id="svg2"
   xmlns="http://www.w3.org/2000/svg"
   xmlns:svg="http://www.w3.org/2000/svg">
  <defs
     id="defs2" />
  <path
     d="m 1046,244 c 14.85,0 29.7,0 45,0 0.99,7.26 1.98,14.52 3,22 0.7386,4.76024 1.4905,9.50514 2.3125,14.25 0.2095,1.20962 0.4189,2.41925 0.6348,3.66553 2.0464,11.51779 4.5695,22.89969 7.3603,34.2583 0.6038,2.46468 1.1863,4.93312 1.7627,7.40429 20.9156,86.8544 69.6232,162.27258 125.4575,230.61768 1.2949,1.58693 2.5851,3.17769 3.8745,4.76904 4.6273,5.69826 9.3654,11.28999 14.1609,16.84644 3.0061,3.49076 5.9349,7.02739 8.8118,10.62622 4.8504,5.9833 10.1335,11.53628 15.4141,17.13672 2.2906,2.43236 4.5343,4.89011 6.7109,7.42578 3.8988,4.52885 8.0104,8.85862 12.0945,13.21948 8.5782,9.16127 17.0246,18.43836 25.4055,27.78052 1.4997,1.66693 2.9997,3.33359 4.5,5 0.7399,0.82242 1.4798,1.64484 2.2422,2.49219 1.5249,1.69374 3.051,3.38642 4.5781,5.07812 11.8959,13.18628 23.5232,26.61064 34.6797,40.42969 0.9101,1.11593 1.8203,2.23181 2.7305,3.34766 8.0961,9.97151 15.7512,20.24013 23.2695,30.65234 0.5698,0.78472 1.1395,1.56943 1.7266,2.37793 15.0842,20.84418 28.3677,42.82211 40.2734,65.62207 0.5216,0.98871 1.0432,1.97742 1.5806,2.99609 11.9141,22.69078 22.0675,46.42295 29.4194,71.00391 0.4148,1.37188 0.4148,1.37188 0.8379,2.77148 4.6656,15.58245 8.2482,31.23145 11.1621,47.22852 0.1545,0.82049 0.3091,1.64098 0.4683,2.48633 0.1432,0.76248 0.2865,1.52496 0.434,2.31054 0.1211,0.64164 0.2422,1.28327 0.367,1.94434 3.2373,18.93605 4.141,37.94947 4.1057,57.13379 -2e-4,1.0734 -4e-4,2.14679 -6e-4,3.2527 -0.074,38.3053 -5.4542,75.0453 -14.7206,112.1848 -0.5612,2.307 -1.0827,4.6144 -1.5718,6.9375 -3.2002,14.9044 -8.2213,29.3209 -13.082,43.75 -0.3622,1.0781 -0.7244,2.1563 -1.0977,3.2671 -16.2838,47.9614 -37.749,98.503 -65.9023,140.7329 -4.1466,-0.6199 -8.2921,-1.2468 -12.4375,-1.875 -1.1647,-0.174 -2.3293,-0.348 -3.5293,-0.5273 -6.4131,-0.9756 -12.7213,-2.0991 -19.0332,-3.5977 1.3344,-3.4478 2.8212,-6.7537 4.4766,-10.0586 15.2342,-30.7792 27.9319,-62.4143 38.8539,-94.9625 0.6436,-1.9022 1.3039,-3.7987 1.9649,-5.695 3.4695,-10.0691 6.1581,-20.2612 8.7046,-30.5964 0.3268,-1.32 0.3268,-1.32 0.6603,-2.6667 5.1648,-20.9163 9.1521,-41.8054 12.0897,-63.1458 0.1074,-0.7742 0.2147,-1.5484 0.3254,-2.346 2.4635,-17.9466 3.1112,-35.6978 3.1099,-53.7993 0,-3.3937 0.02,-6.7872 0.039,-10.1809 0.036,-13.6383 -0.6039,-27.0075 -2.2246,-40.5488 -0.1407,-1.22969 -0.2815,-2.45937 -0.4265,-3.72632 C 1412.3439,948.37487 1401.7049,914.84838 1387,883 c -0.414,-0.91008 -0.8279,-1.82016 -1.2544,-2.75781 C 1370.0949,845.89506 1348.3854,815.78897 1323,788 c -0.8791,-0.98355 -1.7583,-1.96711 -2.6641,-2.98047 C 1308.2578,771.59498 1294.8647,759.54513 1281,748 c -0.6181,-0.51772 -1.2362,-1.03544 -1.873,-1.56885 C 1257.8937,728.69547 1234.9792,712.8005 1211,699 c -0.6328,-0.3698 -1.2655,-0.7396 -1.9175,-1.12061 C 1186.4173,684.67057 1162.6706,673.86402 1138,665 c -0.7225,-0.26603 -1.445,-0.53206 -2.1895,-0.80615 -11.2779,-4.1446 -22.9456,-6.82793 -34.6184,-9.60889 C 1099,654 1099,654 1097,653 c 0,1.175 0,1.175 0,2.37374 0.085,85.31235 0.1633,170.6247 0.2094,255.93708 6e-4,1.27504 0,2.55009 0,3.86377 0.015,27.03737 0.028,54.07474 0.041,81.11212 0.01,13.58299 0.013,27.16599 0.019,40.74889 10e-4,2.0489 0,4.0978 0,6.1466 0.015,31.5273 0.035,63.0545 0.067,94.5818 10e-4,1.0158 10e-4,1.0158 0,2.0521 0.011,10.9175 0.023,21.8351 0.034,32.7526 0.048,45.7131 0.08,91.4261 0.09,137.1392 0,6.3654 0,12.7308 0,19.0962 3e-4,1.2528 6e-4,2.5055 10e-4,3.7963 0.01,20.1388 0.029,40.2775 0.059,60.4163 0.029,20.2628 0.041,40.5255 0.033,60.7883 -0,12.0278 0.01,24.0554 0.036,36.0831 0.019,8.0506 0.019,16.101 0.01,24.1516 -0.01,4.5769 -0.01,9.1534 0.015,13.7303 0.2799,60.0506 -21.517,113.5349 -62.3588,157.7534 -1.8742,2.0488 -3.6918,4.1275 -5.5039,6.2305 -3.8873,4.454 -8.009,8.641 -12.1992,12.8086 -0.7122,0.7161 -1.4244,1.4321 -2.1582,2.1699 -4.637,4.6286 -9.4137,9.0238 -14.4043,13.2676 -0.9556,0.8156 -0.9556,0.8156 -1.93043,1.6477 -21.96669,18.6162 -45.67414,34.6625 -71.05688,48.2659 -1.87262,1.0108 -3.72936,2.0452 -5.58301,3.0903 -26.38617,14.6098 -55.5154,26.0686 -84.76709,33.3179 -2.74153,0.6983 -5.4608,1.4559 -8.18213,2.229 -14.67885,4.1168 -29.3686,6.5336 -44.48047,8.4492 -1.2914,0.1779 -1.2914,0.1779 -2.60889,0.3594 -53.07128,7.2947 -114.37148,-0.3627 -157.98095,-33.3164 -2.51576,-1.9653 -4.97097,-3.9836 -7.41016,-6.043 -0.83402,-0.6987 -1.66805,-1.3973 -2.52734,-2.1172 -16.11752,-13.9569 -27.33572,-32.348 -33.78516,-52.5703 -0.24242,-0.7593 -0.48485,-1.5185 -0.73462,-2.3008 -3.70601,-12.1902 -4.35965,-23.8606 -4.32788,-36.5117 8.8e-4,-0.8486 0.002,-1.6972 0.003,-2.5715 0.0424,-12.4262 0.60188,-24.0081 4.37234,-35.9285 0.23606,-0.805 0.47212,-1.61 0.71533,-2.4395 9.39949,-31.974 25.94759,-61.0621 47.28467,-86.5605 0.82887,-1.0016 1.65773,-2.0032 2.51172,-3.0352 57.51938,-69.1024 142.19012,-117.0392 250.92578,-137.7148 1.2027,-0.1734 1.2027,-0.1734 2.42969,-0.3503 47.55083,-6.2625 96.37646,-2.1258 140.00778,18.5378 1.4077,0.6633 1.4077,0.6633 2.8438,1.3401 6.8582,3.3224 12.7577,7.0713 19.2808,11.2224 0,-396.99 0,-793.98 0,-1203 z"
     fill="#000000"
     id="path2" />
</svg>
