<?xml version="1.0" encoding="UTF-8" standalone="no"?>
<svg
   version="1.1"
   width="1029"
   height="1024"
   id="svg61"
   sodipodi:docname="fusa.svg"
   inkscape:export-filename="..\..\..\..\..\..\Downloads\fusa.png"
   inkscape:export-xdpi="96"
   inkscape:export-ydpi="96"
   inkscape:version="1.3.2 (091e20e, 2023-11-25, custom)"
   xmlns:inkscape="http://www.inkscape.org/namespaces/inkscape"
   xmlns:sodipodi="http://sodipodi.sourceforge.net/DTD/sodipodi-0.dtd"
   xmlns="http://www.w3.org/2000/svg"
   xmlns:svg="http://www.w3.org/2000/svg">
  <sodipodi:namedview
     id="namedview1"
     pagecolor="#ffffff"
     bordercolor="#000000"
     borderopacity="0.25"
     inkscape:showpageshadow="2"
     inkscape:pageopacity="0.0"
     inkscape:pagecheckerboard="0"
     inkscape:deskcolor="#d1d1d1"
     inkscape:zoom="0.75878906"
     inkscape:cx="514.63578"
     inkscape:cy="512"
     inkscape:window-width="1920"
     inkscape:window-height="991"
     inkscape:window-x="-9"
     inkscape:window-y="-9"
     inkscape:window-maximized="1"
     inkscape:current-layer="svg61" />
  <defs
     id="defs61" />
  <path
     d="m 0,0 c 339.57,0 679.14,0 1029,0 0,337.92 0,675.84 0,1024 -339.57,0 -679.14,0 -1029,0 C 0,686.08 0,348.16 0,0 Z"
     fill="#fefefe"
     id="path1" />
  <path
     d="m 518,84 c 6.27,0 12.54,0 19,0 0.32871,2.194629 0.32871,2.194629 0.66406,4.433594 C 543.77787,127.38769 564.05163,156.82835 594,182 c 0.98742,0.84176 1.97484,1.68352 2.99219,2.55078 5.10634,4.34832 10.24026,8.65665 15.44531,12.88672 1.85579,1.51886 3.70987,3.03979 5.5625,4.5625 0.76619,0.62648 0.76619,0.62648 1.54785,1.26563 C 654.25658,231.7876 679.55426,267.1597 691,311 c 0.24122,0.88768 0.48243,1.77536 0.73096,2.68994 8.07866,30.82019 5.94573,63.38112 -1.18018,94.13672 -0.9372,5.39968 -0.81,10.14265 0.82422,15.36084 3.60663,12.44486 4.0936,24.63426 4.125,37.5 0.008,1.37039 0.008,1.37039 0.0152,2.76846 0.0339,14.47881 -1.35913,28.19159 -4.4683,42.32602 -0.27457,1.25144 -0.54914,2.50288 -0.83203,3.79224 -0.3849,1.61781 -0.3849,1.61781 -0.77758,3.26831 -0.50494,3.64619 -0.11044,6.54666 0.56274,10.15747 0.18369,1.00273 0.36738,2.00546 0.55664,3.03857 0.19787,0.99532 0.39574,1.99064 0.59961,3.01612 0.21785,1.10988 0.4357,2.21976 0.66016,3.36328 0.45424,2.29717 0.90996,4.59405 1.36718,6.89062 5.71894,29.20382 3.14016,58.63467 -2.18359,87.69141 -0.1816,0.99129 -0.36319,1.98258 -0.55029,3.00391 C 686.36868,651.04805 677.46282,671.86408 668,691 c -4.62,0 -9.24,0 -14,0 1.32155,-3.96466 2.66241,-7.74858 4.24219,-11.59766 C 664.75749,663.40832 669.92378,647.76731 674,631 c 0.25838,-0.98891 0.25838,-0.98891 0.52197,-1.9978 10.03365,-38.57123 2.10455,-82.97509 -17.76806,-117.14478 C 645.42201,493.04378 631.16623,474.8309 614,461 c -1.47146,-1.24523 -1.47146,-1.24523 -2.97266,-2.51563 -16.87159,-14.09351 -35.51628,-25.73174 -54.97607,-35.88342 -3.63931,-1.90949 -7.26558,-3.84274 -10.89087,-5.77868 -0.69091,-0.36874 -1.38183,-0.73747 -2.09368,-1.11737 C 541.37771,414.80346 539.68884,413.90176 538,413 c 0.007,1.64769 0.007,1.64769 0.014,3.32866 0.11119,26.77697 0.19325,53.5539 0.24509,80.33105 0.0257,12.94945 0.0608,25.89875 0.11814,38.8481 0.05,11.29189 0.0821,22.58366 0.0932,33.87566 0.006,5.97431 0.0217,11.94831 0.0582,17.92253 0.0342,5.63397 0.0444,11.2675 0.0369,16.90157 0.001,2.05737 0.0112,4.11477 0.0305,6.17205 0.13877,15.55129 -1.99295,28.8187 -9.28353,42.80788 -0.33902,0.65742 -0.67804,1.31484 -1.02734,1.99219 -17.23213,32.27902 -50.86096,53.79125 -84.99927,64.26611 C 418.75243,726.69037 391.47446,728.91433 368,717 353.77391,709.10291 344.97716,698.82025 340.44067,683.0564 337.94765,671.42275 339.32609,657.79881 344,647 c 0.46277,-1.10086 0.92555,-2.20172 1.40234,-3.33594 C 357.94239,616.37642 381.7099,596.4271 408,583 c 0.63293,-0.32339 1.26586,-0.64679 1.91797,-0.97998 C 418.97292,577.4622 428.22239,573.73971 438,571 c 0.70044,-0.19755 1.40089,-0.3951 2.12256,-0.59863 C 465.09997,563.63215 490.92378,565.29263 514,577 c 0.99,0.66 1.98,1.32 3,2 0.495,-245.025 0.495,-245.025 1,-495 z"
     fill="#030303"
     id="path2" />
  <path
     d="m 539,204 c 23.9511,10.83958 46.20709,23.90322 67,40 0.80437,0.60973 1.60875,1.21945 2.4375,1.84766 29.59034,22.92278 54.41069,53.84193 64.99365,90.20459 0.37745,1.29239 0.77352,2.5795 1.18848,3.86035 4.5354,14.07155 3.78408,28.45611 3.38037,43.0874 -2.0719,-2.65313 -3.78582,-5.29357 -5.34766,-8.27344 -13.67169,-25.70248 -31.88012,-48.41721 -54.86718,-66.51562 -3.3972,-2.69679 -6.68578,-5.50651 -9.97266,-8.33594 -0.60183,-0.51764 -1.20366,-1.03528 -1.82373,-1.5686 C 601.63929,294.55997 597.30137,290.80162 593,287 c -0.6832,-0.59039 -1.36641,-1.18078 -2.07031,-1.78906 C 567.98655,265.06764 545.21219,241.06095 539,210 c -0.029,-1.99979 -0.0339,-4.00029 0,-6 z"
     fill="#fcfcfc"
     id="path3" />
  <path
     d="m 539,310 c 3.50419,0.57986 6.3041,1.47622 9.44922,3.11719 0.83894,0.43635 1.67788,0.87269 2.54223,1.32226 0.8897,0.47373 1.77939,0.94746 2.69605,1.43555 0.92901,0.49178 1.85802,0.98355 2.81519,1.49023 25.54202,13.67118 49.04183,30.02478 69.92016,50.12061 1.29328,1.24163 2.6012,2.468 3.91309,3.68994 C 652.39797,392.20225 667.78977,421.67238 675,451 c 0.26426,1.02352 0.52852,2.04703 0.80078,3.10156 2.19592,10.36711 1.37337,21.35816 1.19922,31.89844 -1.89036,-2.43104 -3.51095,-4.78709 -4.875,-7.54688 -12.66671,-25.07184 -30.47831,-46.92408 -52.54688,-64.3789 -2.61675,-2.1053 -5.09879,-4.3093 -7.57812,-6.57422 -3.35326,-3.05754 -6.77455,-5.97088 -10.3125,-8.8125 C 595.1856,393.40414 589.05477,387.78231 583,382 c -0.67934,-0.64534 -1.35867,-1.29067 -2.05859,-1.95557 C 571.18453,370.72203 562.41567,361.296 555,350 c -0.961,-1.43473 -0.961,-1.43473 -1.94141,-2.89844 -3.8514,-6.15191 -6.69351,-12.65081 -9.43359,-19.35156 -0.34636,-0.84007 -0.69271,-1.68013 -1.04956,-2.54565 C 540.55608,320.0828 539.4428,315.49068 539,310 Z"
     fill="#fcfcfc"
     id="path4" />
  <path
     d="m 635.83984,853.64453 c 3.80541,2.38785 6.92652,5.2416 10.16016,8.35547 0.33,-3.63 0.66,-7.26 1,-11 4.29,0 8.58,0 13,0 0,24.75 0,49.5 0,75 -4.29,0 -8.58,0 -13,0 -0.33,-3.96 -0.66,-7.92 -1,-12 -0.76313,1.05187 -1.52625,2.10375 -2.3125,3.1875 -5.10941,6.01178 -13.31714,9.28156 -21.09766,10.05078 -9.90298,0.27711 -17.38753,-1.98863 -24.96484,-8.48828 -9.231,-8.9823 -12.67059,-18.3823 -13.0625,-31.25 0.26803,-11.47898 4.15783,-19.99391 12.0625,-28.18359 10.44724,-9.69756 26.22776,-11.84241 39.21484,-5.67188 z"
     fill="#080808"
     id="path5" />
  <path
     d="m 493,851 c 4.29,0 8.58,0 13,0 0,24.75 0,49.5 0,75 -4.29,0 -8.58,0 -13,0 -0.495,-4.455 -0.495,-4.455 -1,-9 -1.03125,0.92813 -2.0625,1.85625 -3.125,2.8125 -5.99484,5.39536 -11.33693,6.74612 -19.1875,6.6875 -1.26868,-0.005 -1.26868,-0.005 -2.56299,-0.0107 C 460.64465,926.31646 456.10549,925.14972 451,921 c -0.9075,-0.55688 -1.815,-1.11375 -2.75,-1.6875 -5.63108,-5.78749 -8.38325,-13.47837 -8.36352,-21.44824 7e-5,-1.02076 1.5e-4,-2.04152 2.2e-4,-3.0932 0.005,-1.09492 0.0103,-2.18984 0.0156,-3.31794 0.001,-1.12633 0.003,-2.25267 0.004,-3.41314 0.006,-3.59669 0.0181,-7.19331 0.0309,-10.78998 0.005,-2.4388 0.01,-4.8776 0.0137,-7.31641 0.011,-5.97789 0.0283,-11.95573 0.0488,-17.93359 4.29,0 8.58,0 13,0 0.004,1.47275 0.008,2.94551 0.0125,4.46289 0.0218,5.48701 0.0762,10.9733 0.14014,16.45996 0.0231,2.37037 0.0376,4.74085 0.043,7.11133 0.009,3.41633 0.0504,6.83107 0.0974,10.24707 -0.004,1.0524 -0.008,2.1048 -0.0119,3.18909 0.16245,8.27367 2.39338,13.20409 8.21895,19.02966 6.29997,2.69999 14.09187,2.74949 20.5625,0.3125 5.31102,-3.27701 8.1748,-7.88082 9.9375,-13.8125 0.45143,-3.72747 0.48807,-7.43175 0.51172,-11.18359 0.0179,-1.05551 0.0359,-2.11102 0.0544,-3.19851 0.0539,-3.35176 0.0879,-6.70338 0.12138,-10.0554 0.0332,-2.28062 0.0677,-4.56122 0.10352,-6.8418 C 492.87576,862.14724 492.94266,856.57381 493,851 Z"
     fill="#0b0b0b"
     id="path6" />
  <path
     d="M 564.05469,853.80078 C 568.94227,856.8138 572.26091,861.01094 575,866 c 0.58607,2.7008 0.80893,5.22941 1,8 -4.29,0 -8.58,0 -13,0 -0.39187,-1.0725 -0.78375,-2.145 -1.1875,-3.25 -1.84153,-4.33199 -4.61367,-6.65059 -8.8125,-8.75 -8.20301,-0.84098 -8.20301,-0.84098 -15.6875,1.9375 -3.25107,2.57293 -3.25107,2.57293 -3.6875,6.875 0.0724,3.12238 0.16227,3.92342 2.1875,6.4375 5.75481,3.1595 11.8837,5.10284 18.17969,6.90234 17.03027,4.9161 17.03027,4.9161 22.00781,13.16016 1.40841,5.19352 2.2263,9.7685 0.0859,14.86328 -4.14435,7.09887 -9.61115,11.2733 -17.24609,14.09766 -9.67297,2.47479 -19.49073,0.98747 -28.28125,-3.52735 -5.913,-3.57508 -10.35203,-7.94705 -12.07813,-14.8125 C 518.18751,906 518.18751,906 518.00001,903 c 4.42271,-0.46623 8.59643,-0.7125 13,0 2.52506,2.30479 3.58848,4.93465 5,8 4.63236,4.22363 9.17569,4.28257 15.19921,4.21875 3.96697,-0.30983 6.37936,-1.18045 9.80079,-3.21875 2.44216,-3.07926 2.40776,-6.16706 2,-10 -2.16525,-2.76517 -4.41278,-3.74163 -7.6875,-4.875 -0.96938,-0.33903 -1.93875,-0.67805 -2.9375,-1.02734 -2.45285,-0.79775 -4.90211,-1.55957 -7.375,-2.28907 -18.5236,-5.48446 -18.5236,-5.48446 -24,-13.80859 -1.79917,-5.39751 -1.52164,-10.35273 0.1875,-15.75 1.91564,-3.43494 3.86573,-5.6626 6.8125,-8.25 0.61875,-0.55688 1.2375,-1.11375 1.875,-1.6875 9.2166,-5.69261 24.64807,-5.11597 34.17968,-0.51172 z"
     fill="#070707"
     id="path7" />
  <path
     d="m 635,865 c 6.03594,4.2183 10.27987,8.71095 12,16 1.07241,9.54002 0.38521,18.26883 -5.57813,26.0625 -5.79406,6.26385 -10.96245,8.08837 -19.35937,8.4375 -8.22703,-0.19214 -12.08959,-2.59466 -17.8125,-8.1875 -5.68651,-7.57559 -7.48465,-15.98962 -6.25,-25.3125 2.03677,-7.36899 6.42376,-13.44554 12.625,-17.875 7.6746,-3.63534 17.07599,-3.39423 24.375,0.875 z"
     fill="#fbfcfb"
     id="path8" />
  <path
     d="m 376,831 c 18.15,0 36.3,0 55,0 0,3.63 0,7.26 0,11 -13.86,0 -27.72,0 -42,0 0,10.23 0,20.46 0,31 11.55,0 23.1,0 35,0 0,3.3 0,6.6 0,10 -11.55,0 -23.1,0 -35,0 0,13.86 0,27.72 0,42 -4.29,0 -8.58,0 -13,0 0,-31.02 0,-62.04 0,-94 z"
     fill="#070808"
     id="path9" />
  <path
     d="m 519,85 c 5.94,0 11.88,0 18,0 -0.33,1.32 -0.66,2.64 -1,4 -0.33,-0.66 -0.66,-1.32 -1,-2 -4.62,0 -9.24,0 -14,0 0,36.63 0,73.26 0,111 -0.33,0 -0.66,0 -1,0 -0.495,-55.935 -0.495,-55.935 -1,-113 z"
     fill="#080808"
     id="path10" />
  <path
     d="m 386,883 c 0.99,0 1.98,0 3,0 0,13.86 0,27.72 0,42 -3.63,-0.33 -7.26,-0.66 -11,-1 0.33,-0.66 0.66,-1.32 1,-2 2.31,0.33 4.62,0.66 7,1 0,-13.2 0,-26.4 0,-40 z"
     fill="#141416"
     id="path11" />
  <path
     d="m 424,873 c 0,3.3 0,6.6 0,10 -11.22,0 -22.44,0 -34,0 0,-0.66 0,-1.32 0,-2 10.49412,-1.08101 20.51053,-0.82544 31,0 0,-1.98 0,-3.96 0,-6 -10.56,0 -21.12,0 -32,0 0,-0.33 0,-0.66 0,-1 4.82381,-0.1426 9.64762,-0.28501 14.47144,-0.42725 1.64225,-0.0485 3.2845,-0.0969 4.92675,-0.1455 2.35555,-0.0696 4.7111,-0.13909 7.06665,-0.2085 0.73855,-0.0219 1.4771,-0.0438 2.23803,-0.0663 C 422.88613,873 422.88613,873 424,873 Z"
     fill="#0d0d0e"
     id="path12" />
  <path
     d="m 388,842 c 0.33,0 0.66,0 1,0 0,10.23 0,20.46 0,31 -0.99,0 -1.98,0 -3,0 0,-8.25 0,-16.5 0,-25 0.33,0 0.66,0 1,0 0.33,-1.98 0.66,-3.96 1,-6 z"
     fill="#171719"
     id="path13" />
  <path
     d="m 516,669 c 0.66,0.33 1.32,0.66 2,1 -4.14167,4.95834 -8.52462,9.65572 -13.0625,14.25 -0.49403,0.50692 -0.98807,1.01385 -1.49707,1.53613 C 500.19931,689.03584 496.8952,691.56912 493,694 c 0.49154,-4.1686 2.64654,-5.78854 5.75,-8.4375 0.90879,-0.7902 1.81758,-1.58039 2.75391,-2.39453 0.82371,-0.71543 1.64742,-1.43086 2.49609,-2.16797 1.68616,-1.64694 3.3557,-3.31126 5,-5 1.26949,-1.27217 2.5404,-2.54293 3.8125,-3.8125 0.60457,-0.60457 1.20914,-1.20914 1.83203,-1.83203 C 515.31549,669.68451 515.31549,669.68451 516,669 Z"
     fill="#131413"
     id="path14" />
  <path
     d="m 399,722 c 3.20831,-0.0293 6.41659,-0.0469 9.625,-0.0625 1.35545,-0.0126 1.35545,-0.0126 2.73828,-0.0254 4.66576,-0.017 9.04685,0.1196 13.63672,1.08789 0,0.33 0,0.66 0,1 -9.98678,1.25676 -19.95632,1.09367 -30,1 1.32,-0.33 2.64,-0.66 4,-1 0,-0.66 0,-1.32 0,-2 z"
     fill="#252525"
     id="path15" />
  <path
     d="m 568,890 c 4.46409,1.98404 6.30918,4.43151 8.27734,8.73437 1.18188,3.70536 1.40653,7.43277 0.72266,11.26563 -0.66,0.66 -1.32,1.32 -2,2 -2.16826,-2.16826 -1.38608,-6.98684 -1.52344,-9.92188 C 572.95371,898.701 572.00423,896.74471 570,894 c -0.66,-0.33 -1.32,-0.66 -2,-1 0,-0.99 0,-1.98 0,-3 z"
     fill="#222222"
     id="path16" />
  <path
     d="m 635,862 c 0.99,1.485 0.99,1.485 2,3 -3,0 -3,0 -5.5,-0.9375 -4.07166,-1.23604 -7.87621,-1.48743 -12.10938,-1.71875 C 617,862 617,862 615,860 c 7.15186,-2.38395 13.39824,-1.07323 20,2 z"
     fill="#1a1a1a"
     id="path17" />
  <path
     d="m 620.1875,923.9375 c 1.2723,0.009 2.54461,0.0181 3.85547,0.0273 1.46373,0.0174 1.46373,0.0174 2.95703,0.0352 0,0.66 0,1.32 0,2 -2.57333,1.28666 -4.50223,1.16825 -7.375,1.1875 -1.43473,0.0213 -1.43473,0.0213 -2.89844,0.043 C 613.9699,926.99746 612.35053,926.4092 610,925 c 3.56045,-1.18682 6.43808,-1.0969 10.1875,-1.0625 z"
     fill="#2d2e2e"
     id="path18" />
  <path
     d="m 656,510 c 0.99,0 1.98,0 3,0 1.33958,2.78871 2.67058,5.58143 4,8.375 0.57234,1.19109 0.57234,1.19109 1.15625,2.40625 0.36094,0.76055 0.72187,1.52109 1.09375,2.30469 0.33516,0.70173 0.67031,1.40346 1.01562,2.12646 C 667,527 667,527 667,529 c -0.66,0 -1.32,0 -2,0 -1.31496,-2.60295 -2.62705,-5.20728 -3.9375,-7.8125 -0.37318,-0.73799 -0.74637,-1.47598 -1.13086,-2.23633 -0.35771,-0.71221 -0.71543,-1.42441 -1.08398,-2.1582 -0.32992,-0.6546 -0.65984,-1.30921 -0.99976,-1.98364 C 657,513 657,513 656,510 Z"
     fill="#141413"
     id="path19" />
  <path
     d="m 518,903 c 4.29,0 8.58,0 13,0 -0.33,0.99 -0.66,1.98 -1,3 -2.97,0 -5.94,0 -9,0 0.33,1.65 0.66,3.3 1,5 -0.99,0.495 -0.99,0.495 -2,1 -0.66,-2.97 -1.32,-5.94 -2,-9 z"
     fill="#313131"
     id="path20" />
  <path
     d="m 602,855 c 0.33,0.99 0.66,1.98 1,3 -4.75,4 -4.75,4 -7,4 -0.40219,1.14469 -0.40219,1.14469 -0.8125,2.3125 -1.13174,2.56131 -2.09973,3.88443 -4.1875,5.6875 0,-4.48948 0.37368,-4.92634 3.25,-8.0625 0.60328,-0.6716 1.20656,-1.3432 1.82812,-2.03516 1.86486,-1.8459 3.7851,-3.38485 5.92188,-4.90234 z"
     fill="#151516"
     id="path21" />
  <path
     d="m 559,913 c 0.33,0.99 0.66,1.98 1,3 -2.87698,1.59905 -5.29532,2.37408 -8.5625,2.75 -0.76441,0.098 -1.52883,0.19594 -2.31641,0.29687 C 547,919 547,919 544,917 c 1.79036,-1.79036 4.51247,-1.63091 6.9375,-2 4.16931,-0.56259 4.16931,-0.56259 8.0625,-2 z"
     fill="#1a1a1b"
     id="path22" />
  <path
     d="m 461,923 c 2.43847,0.11398 4.87513,0.24071 7.3125,0.375 0.69029,0.0309 1.38059,0.0619 2.0918,0.0937 3.66561,0.2125 5.47471,0.45059 8.5957,2.53125 -6.27,0 -12.54,0 -19,0 0.33,-0.99 0.66,-1.98 1,-3 z"
     fill="#191919"
     id="path23" />
  <path
     d="m 573,912 c 0.66,0.66 1.32,1.32 2,2 -7.26044,9.04333 -7.26044,9.04333 -13,11 -0.99,-0.33 -1.98,-0.66 -3,-1 2.01039,-2.01039 3.314,-2.64829 5.875,-3.75 4.23287,-2.03178 5.89898,-4.16896 8.125,-8.25 z"
     fill="#101010"
     id="path24" />
  <path
     d="m 617,915 c 1.79134,-0.0539 3.58314,-0.0928 5.375,-0.125 0.99773,-0.0232 1.99547,-0.0464 3.02344,-0.0703 C 628,915 628,915 630,917 c -3.01491,1.00497 -5.04182,1.10335 -8.1875,1.0625 -0.90105,-0.009 -1.80211,-0.0181 -2.73047,-0.0273 -0.68707,-0.0116 -1.37414,-0.0232 -2.08203,-0.0352 0,-0.99 0,-1.98 0,-3 z"
     fill="#242525"
     id="path25" />
  <path
     d="m 375,605 c 0.33,0.99 0.66,1.98 1,3 -1.2193,1.30099 -2.45092,2.59042 -3.6875,3.875 -0.68449,0.7193 -1.36898,1.43859 -2.07422,2.17969 -2.33419,2.02867 -4.32296,2.97524 -7.23828,3.94531 3.80475,-4.56031 7.7497,-8.85089 12,-13 z"
     fill="#1a1b1b"
     id="path26" />
  <path
     d="m 592,910 c 0.33,0.66 0.66,1.32 1,2 1.32876,0.67574 2.66284,1.34104 4,2 1.28017,1.00436 2.53128,2.0469 3.75,3.125 0.92039,0.80824 0.92039,0.80824 1.85937,1.63281 0.45891,0.40992 0.91782,0.81985 1.39063,1.24219 -0.66,0.66 -1.32,1.32 -2,2 -1.29243,-1.12412 -2.58392,-2.24933 -3.875,-3.375 -0.7193,-0.62648 -1.43859,-1.25297 -2.17969,-1.89844 C 594.59234,915.52573 593.27917,914.27917 592,913 c 0,-0.99 0,-1.98 0,-3 z"
     fill="#131212"
     id="path27" />
  <path
     d="m 660,305 c 3,1 3,1 4.20312,2.74219 0.34547,0.70383 0.69094,1.40765 1.04688,2.13281 0.35578,0.69867 0.71156,1.39734 1.07812,2.11719 C 667,314 667,314 666,317 c -2.74792,-3.40219 -6,-7.48465 -6,-12 z"
     fill="#1d1d1d"
     id="path28" />
  <path
     d="m 521,878 c 3.73386,1.24462 4.64806,2.91308 7,6 0.9823,1.01739 1.9747,2.02596 3,3 -0.99,0.495 -0.99,0.495 -2,1 -6.57143,-5 -6.57143,-5 -8,-10 z"
     fill="#181818"
     id="path29" />
  <path
     d="m 692,613 c 1.45528,2.91056 0.63517,4.95849 0.0625,8.125 -0.19465,1.0957 -0.3893,2.19141 -0.58984,3.32031 -0.15598,0.84305 -0.31196,1.6861 -0.47266,2.55469 -0.99,-0.66 -1.98,-1.32 -3,-2 0.2836,-1.43911 0.57721,-2.87626 0.875,-4.3125 0.16242,-0.80051 0.32484,-1.60102 0.49219,-2.42578 C 690,616 690,616 692,613 Z"
     fill="#171517"
     id="path30" />
  <path
     d="m 687,509 c 0.99,0 1.98,0 3,0 -0.28318,1.60569 -0.57688,3.20952 -0.875,4.8125 -0.16242,0.89332 -0.32484,1.78664 -0.49219,2.70703 C 688,519 688,519 686,522 c -0.0272,-1.41656 -0.0465,-2.83327 -0.0625,-4.25 -0.0116,-0.78891 -0.0232,-1.57781 -0.0352,-2.39063 0.0938,-2.26628 0.46525,-4.18826 1.09766,-6.35937 z"
     fill="#191818"
     id="path31" />
  <path
     d="m 646,441 c 4.55016,1.51672 6.50057,5.16891 9,9 -3,0 -3,0 -4.60547,-1.46094 -0.7831,-0.94746 -0.7831,-0.94746 -1.58203,-1.91406 -0.5298,-0.62648 -1.05961,-1.25297 -1.60547,-1.89844 C 646,443 646,443 646,441 Z"
     fill="#111111"
     id="path32" />
  <path
     d="m 438,720 c -2.90092,1.93395 -3.89675,2.30132 -7.1875,2.625 -1.25813,0.12375 -2.51625,0.2475 -3.8125,0.375 0.33,-0.99 0.66,-1.98 1,-3 3.4127,-1.51676 6.44169,-0.72784 10,0 z"
     fill="#191919"
     id="path33" />
  <path
     d="m 567,366 c 1.12895,0.93274 2.25301,1.8714 3.375,2.8125 0.62648,0.52207 1.25297,1.04414 1.89844,1.58203 C 574,372 574,372 576,375 c -3,0 -3,0 -4.60547,-1.20703 -0.52207,-0.52981 -1.04414,-1.05961 -1.58203,-1.60547 -0.79471,-0.78311 -0.79471,-0.78311 -1.60547,-1.58203 C 567,369 567,369 567,366 Z"
     fill="#191919"
     id="path34" />
  <path
     d="m 371,716 c 5.445,1.485 5.445,1.485 11,3 -0.99,0.66 -1.98,1.32 -3,2 -2.26172,-0.46094 -2.26172,-0.46094 -4.6875,-1.375 -0.80824,-0.29648 -1.61648,-0.59297 -2.44922,-0.89844 C 371.2484,718.4868 370.63352,718.24703 370,718 c 0.33,-0.66 0.66,-1.32 1,-2 z"
     fill="#1d1d1c"
     id="path35" />
  <path
     d="m 557,895 c 3.35596,0.59928 5.37801,1.84622 8,4 -0.33,0.99 -0.66,1.98 -1,3 -2.64,-1.65 -5.28,-3.3 -8,-5 0.33,-0.66 0.66,-1.32 1,-2 z"
     fill="#1c1b1c"
     id="path36" />
  <path
     d="m 638,328 c 4.27426,1.58306 6.26532,4.50568 9,8 -3,0 -3,0 -5.1875,-1.875 C 640,332 640,332 640,330 c -0.66,0 -1.32,0 -2,0 0,-0.66 0,-1.32 0,-2 z"
     fill="#121212"
     id="path37" />
  <path
     d="m 571,862 c 0.66,0 1.32,0 2,0 1.76463,3.0881 2,4.23312 2,8 -0.99,-0.33 -1.98,-0.66 -3,-1 -1.1875,-3.0625 -1.1875,-3.0625 -2,-6 0.33,-0.33 0.66,-0.66 1,-1 z"
     fill="#1b1b1b"
     id="path38" />
  <path
     d="m 524,658 c 0.66,0.33 1.32,0.66 2,1 -1.98,2.97 -3.96,5.94 -6,9 -0.66,-0.66 -1.32,-1.32 -2,-2 1.98,-2.64 3.96,-5.28 6,-8 z"
     fill="#1f1f1f"
     id="path39" />
  <path
     d="m 676,562 c 0.66,0 1.32,0 2,0 0.83797,4.65537 1.01617,8.37078 0,13 -0.33,0 -0.66,0 -1,0 -0.33,-4.29 -0.66,-8.58 -1,-13 z"
     fill="#252525"
     id="path40" />
  <path
     d="m 586,333 c 2.64,1.65 5.28,3.3 8,5 -0.66,0.66 -1.32,1.32 -2,2 -2.64,-1.65 -5.28,-3.3 -8,-5 0.66,-0.66 1.32,-1.32 2,-2 z"
     fill="#1f1f1e"
     id="path41" />
  <path
     d="m 575,221 c 3.96,1.98 3.96,1.98 8,4 0,0.99 0,1.98 0,3 -2.97,-1.65 -5.94,-3.3 -9,-5 0.33,-0.66 0.66,-1.32 1,-2 z"
     fill="#171717"
     id="path42" />
  <path
     d="m 535,911 c 3.96,1.98 3.96,1.98 8,4 0,0.66 0,1.32 0,2 -3.34373,-0.55729 -6.03313,-1.35174 -9,-3 0.33,-0.99 0.66,-1.98 1,-3 z"
     fill="#1d1e1e"
     id="path43" />
  <path
     d="m 638,865 c 3.24299,2.38957 5.50902,4.20479 7,8 -0.99,0.495 -0.99,0.495 -2,1 -1.98,-2.64 -3.96,-5.28 -6,-8 0.33,-0.33 0.66,-0.66 1,-1 z"
     fill="#1a1a1a"
     id="path44" />
  <path
     d="m 541,860 c 0,0.66 0,1.32 0,2 -2.59241,1.85977 -5.14411,3.57205 -8,5 0.37994,-2.75458 0.80736,-3.82021 2.875,-5.75 C 538,860 538,860 541,860 Z"
     fill="#151616"
     id="path45" />
  <path
     d="m 672,674 c 0.99,0 1.98,0 3,0 -0.99,2.97 -1.98,5.94 -3,9 -2,-4 -2,-4 -1.125,-6.75 0.37125,-0.7425 0.7425,-1.485 1.125,-2.25 z"
     fill="#131313"
     id="path46" />
  <path
     d="m 678,606 c 2.30019,3.45029 2.43133,4.94554 2,9 -0.99,0.66 -1.98,1.32 -3,2 0.33,-3.63 0.66,-7.26 1,-11 z"
     fill="#212122"
     id="path47" />
  <path
     d="m 644,913 c 0.66,0.33 1.32,0.66 2,1 -1.98,2.31 -3.96,4.62 -6,7 -0.33,-0.99 -0.66,-1.98 -1,-3 1.65,-1.65 3.3,-3.3 5,-5 z"
     fill="#1d1d1d"
     id="path48" />
  <path
     d="m 646,895 c 0.66,0.33 1.32,0.66 2,1 -0.33,1.98 -0.66,3.96 -1,6 -0.66,0 -1.32,0 -2,0 0,0.66 0,1.32 0,2 -0.66,-0.33 -1.32,-0.66 -2,-1 0.99,-2.64 1.98,-5.28 3,-8 z"
     fill="#1e1f1e"
     id="path49" />
  <path
     d="m 457,568 c -0.33,0.99 -0.66,1.98 -1,3 -2.97,-0.33 -5.94,-0.66 -9,-1 0,-0.33 0,-0.66 0,-1 3.43515,-0.62457 6.49065,-1 10,-1 z"
     fill="#242424"
     id="path50" />
  <path
     d="m 622,363 c 3.25543,0.3488 4.01873,1.02133 6.25,3.5625 0.5775,0.80437 1.155,1.60875 1.75,2.4375 -3,0 -3,0 -4.38672,-1.3125 C 624.40885,366.125 623.20443,364.5625 622,363 Z"
     fill="#161616"
     id="path51" />
  <path
     d="m 592,232 c 3.465,1.98 3.465,1.98 7,4 0,0.99 0,1.98 0,3 -2.64,-1.65 -5.28,-3.3 -8,-5 0.33,-0.66 0.66,-1.32 1,-2 z"
     fill="#1a1a1a"
     id="path52" />
  <path
     d="m 522,912 c 2.5,2.3125 2.5,2.3125 5,5 0,0.99 0,1.98 0,3 -2.5,-2.3125 -2.5,-2.3125 -5,-5 0,-0.99 0,-1.98 0,-3 z"
     fill="#232323"
     id="path53" />
  <path
     d="m 500,687 c -1.33332,3.99996 -3.49578,4.83782 -7,7 0.38597,-2.79828 0.80137,-3.82059 2.9375,-5.75 C 498,687 498,687 500,687 Z"
     fill="#202020"
     id="path54" />
  <path
     d="m 357,625 c 0.66,0.33 1.32,0.66 2,1 -0.33,0.66 -0.66,1.32 -1,2 -0.66,0 -1.32,0 -2,0 -0.12375,0.61875 -0.2475,1.2375 -0.375,1.875 C 355,632 355,632 353,634 c -0.33,-0.66 -0.66,-1.32 -1,-2 1.65,-2.31 3.3,-4.62 5,-7 z"
     fill="#181917"
     id="path55" />
  <path
     d="m 485,911 c 0.33,0.99 0.66,1.98 1,3 -3,2 -3,2 -5.6875,1.625 -0.76313,-0.20625 -1.52625,-0.4125 -2.3125,-0.625 0.89719,-0.43313 0.89719,-0.43313 1.8125,-0.875 2.38078,-1.17242 2.38078,-1.17242 5.1875,-3.125 z"
     fill="#242625"
     id="path56" />
  <path
     d="m 630,861 c 1.98,0.66 3.96,1.32 6,2 0,0.99 0,1.98 0,3 -2.64,-0.99 -5.28,-1.98 -8,-3 0.66,-0.66 1.32,-1.32 2,-2 z"
     fill="#252525"
     id="path57" />
  <path
     d="m 673,441 c 0.66,0.33 1.32,0.66 2,1 0.75,3.4375 0.75,3.4375 1,7 -0.66,0.66 -1.32,1.32 -2,2 -0.36116,-1.47747 -0.71375,-2.95705 -1.0625,-4.4375 -0.19723,-0.82371 -0.39445,-1.64742 -0.59766,-2.49609 C 672.17162,443.04354 672.17162,443.04354 672,442 c 0.33,-0.33 0.66,-0.66 1,-1 z"
     fill="#161616"
     id="path58" />
  <path
     d="m 573,429 c 3.465,1.98 3.465,1.98 7,4 -0.66,0.66 -1.32,1.32 -2,2 -3.465,-1.98 -3.465,-1.98 -7,-4 0.66,-0.66 1.32,-1.32 2,-2 z"
     fill="#1b1b1a"
     id="path59" />
  <path
     d="m 549,207 c 1.98,0.66 3.96,1.32 6,2 0,0.99 0,1.98 0,3 -2.31,-0.99 -4.62,-1.98 -7,-3 0.33,-0.66 0.66,-1.32 1,-2 z"
     fill="#191919"
     id="path60" />
  <path
     d="m 541,203 c 1.98,0.66 3.96,1.32 6,2 0,0.99 0,1.98 0,3 -2.31,-0.99 -4.62,-1.98 -7,-3 0.33,-0.66 0.66,-1.32 1,-2 z"
     fill="#1a1a1a"
     id="path61" />
  <rect
     style="fill:#ffffff;stroke-width:3.66614"
     id="rect129"
     width="449.40027"
     height="139.69627"
     x="260.94208"
     y="815.7735" />
</svg>
