<?xml version="1.0" encoding="UTF-8" standalone="no"?>
<svg
   version="1.1"
   width="2058"
   height="2048"
   id="svg3"
   xmlns="http://www.w3.org/2000/svg"
   xmlns:svg="http://www.w3.org/2000/svg">
  <defs
     id="defs3" />
  <path
     d="m 1015,501 c 0.9049,0.68449 1.8098,1.36898 2.7422,2.07422 30.9776,24.43981 46.8485,57.55911 51.7226,96.32031 1.6614,15.45007 1.1623,31.29498 -1.4648,46.60547 -0.1188,0.75201 -0.2375,1.50401 -0.3599,2.27881 -2.4601,14.91651 -7.7917,28.61435 -13.4751,42.54272 -8.1601,19.22397 -8.1601,19.22397 -10.7275,39.67847 0.016,0.74919 0.032,1.49837 0.048,2.27026 0.3023,7.32297 2.169,12.37717 6.8269,18.04224 12.6783,10.31952 28.1307,9.40904 43.6836,7.86328 44.9319,-7.32415 93.9619,-39.09931 126.8984,-69.71875 1.9094,-1.77477 3.8647,-3.46258 5.8555,-5.14453 9.9935,-8.73669 19.1204,-18.326 27.25,-28.8125 0.7747,-0.95777 1.5495,-1.91555 2.3477,-2.90234 23.3178,-29.30436 39.8997,-64.26594 57.0898,-97.34766 0.5848,-1.12511 1.1697,-2.25022 1.7722,-3.40942 2.8175,-5.44448 5.5633,-10.90954 8.1958,-16.44556 5.0779,-10.58027 10.5695,-17.91385 21.5086,-22.85986 6.6066,-2.21614 12.4915,-1.93378 18.9609,0.58984 5.1669,2.62506 7.9246,5.85981 10.4375,11.125 1.6828,7.9549 0.6005,14.94768 -1.9375,22.5625 -0.5575,1.76125 -1.1134,3.52299 -1.668,5.28516 -0.2853,0.89477 -0.5707,1.78954 -0.8647,2.71142 -1.3429,4.29023 -2.5607,8.61419 -3.7798,12.94092 -2.1958,7.73907 -4.4298,15.46628 -6.6875,23.1875 -1.8077,6.18304 -3.6132,12.36618 -5.375,18.5625 -4.7489,16.6926 -9.6777,33.33452 -14.584,49.98145 -2.9603,10.04623 -5.8994,20.09849 -8.8296,30.15356 -1.8813,6.4539 -3.772,12.90493 -5.6723,19.35327 -1.816,6.16728 -3.6154,12.33937 -5.4141,18.51172 -2.6228,8.99976 -5.2575,17.99591 -7.9072,26.98779 -0.822,2.79011 -1.6426,5.58059 -2.4632,8.3711 -0.419,1.42483 -0.8381,2.84964 -1.2573,4.27441 -1.0307,3.50326 -2.0602,7.00685 -3.0871,10.51123 -0.4075,1.38935 -0.8151,2.77867 -1.2227,4.16797 -0.2051,0.69932 -0.4102,1.39863 -0.6216,2.11914 -1.0996,3.73961 -2.2121,7.47486 -3.3432,11.20508 -3.1634,10.44104 -6.1867,20.91105 -9.0621,31.43555 -1.6903,6.12893 -3.5841,12.15144 -5.625,18.17236 -1.1946,3.61468 -2.192,7.26265 -3.1606,10.94287 -2.3326,8.62964 -5.0499,17.11985 -7.801,25.62378 -2.5926,8.02816 -5.0387,16.08598 -7.3723,24.19263 -1.0119,3.5027 -2.0459,6.99891 -3.0767,10.49609 -0.4167,1.41795 -0.8334,2.83592 -1.25,4.25391 -0.8296,2.82142 -1.6633,5.6416 -2.5,8.46093 -1.8978,6.40656 -3.7686,12.81548 -5.5232,19.26294 -2.0396,7.48907 -4.2711,14.88831 -6.6643,22.27222 -2.3399,7.22684 -4.4911,14.47005 -6.4375,21.8125 -3.328,12.5353 -7.2564,24.8761 -11.1323,37.2505 -2.6747,8.5872 -5.1799,17.2188 -7.5669,25.8901 -3.2401,11.7512 -6.6777,23.3961 -10.4424,34.9903 -4.5781,14.1457 -8.6411,28.4364 -12.6065,42.7644 -0.2893,1.0452 -0.5787,2.0903 -0.8769,3.1672 -0.2881,1.0407 -0.5762,2.0814 -0.8731,3.1536 -2.1707,7.7671 -4.573,15.4407 -7.0678,23.1089 -2.3819,7.3862 -4.4304,14.8394 -6.426,22.3378 -1.758,6.5506 -3.7848,12.9412 -5.9886,19.3567 -1.5045,4.4931 -2.7827,9.0354 -4.0586,13.5977 -1.2489,4.3936 -2.572,8.7621 -3.8984,13.1328 -2.6901,8.8816 -5.206,17.8071 -7.6516,26.759 -1.6908,6.1302 -3.5754,12.16 -5.6165,18.1824 -1.1917,3.5595 -2.2524,7.1398 -3.2944,10.7461 -0.424,1.4585 -0.8485,2.9168 -1.2734,4.375 -0.2189,0.7515 -0.4377,1.503 -0.6631,2.2773 -1.2089,4.1221 -2.4501,8.2344 -3.6885,12.3477 -4.9791,16.5639 -4.9791,16.5639 -9.7266,33.1953 -0.3036,1.0929 -0.6073,2.1858 -0.9201,3.3118 -0.5921,2.137 -1.1813,4.2748 -1.7671,6.4136 -1.7144,6.1963 -3.6189,12.2948 -5.6822,18.3837 -1.119,3.3368 -2.1172,6.6886 -3.0915,10.0706 -2.1716,7.4842 -4.4091,14.9477 -6.6577,22.4091 -3.0945,10.2712 -6.1404,20.5533 -9.0591,30.8761 -1.8519,6.5353 -3.803,13.0374 -5.7761,19.5371 -2.0446,6.7811 -3.9375,13.5999 -5.8196,20.4277 -2.2393,8.1019 -4.6477,16.1018 -7.3711,24.0535 -1.907,5.5815 -3.6057,11.2042 -5.2371,16.8718 -1.2827,4.4369 -2.6477,8.8384 -4.0712,13.2322 -2.8213,8.7181 -5.2362,17.4866 -7.4956,26.3659 -2.5468,9.9119 -5.5325,19.674 -8.5804,29.4414 -0.6166,1.9958 -1.2092,3.999 -1.7954,6.004 -8.5741,29.3105 -21.7946,62.47 -49.1367,78.9375 -4.4422,2.3197 -9.0199,4.0239 -13.8125,5.4687 -0.5968,0.1921 -1.1937,0.3841 -1.8086,0.582 -9.56078,1.8236 -20.78,1.6061 -29.1914,-3.582 -7.95387,-5.4436 -12.40401,-12.4078 -14.60742,-21.7668 -0.70833,-4.0293 -0.73094,-8.0262 -0.70508,-12.1082 0.004,-0.9162 0.008,-1.8324 0.0127,-2.7764 0.14606,-8.9902 1.42188,-17.5724 3.2998,-26.3486 0.22478,-1.0666 0.22478,-1.0666 0.45411,-2.1548 3.1418,-14.6584 7.50264,-28.9259 12.31494,-43.1123 1.70802,-5.065 3.26138,-10.1566 4.73095,-15.2954 2.00577,-7.0008 4.3497,-13.8264 6.875,-20.6563 1.37897,-3.8984 2.51259,-7.8452 3.64509,-11.8218 3.52335,-12.1251 7.59584,-24.0737 11.60019,-36.0462 1.18002,-3.5303 2.35652,-7.0619 3.53342,-10.5933 2.0585,-6.1752 4.1193,-12.3495 6.1815,-18.5234 3.0669,-9.182 6.1304,-18.3651 9.1931,-27.5485 5.1561,-15.4599 10.3148,-30.919 15.475,-46.3775 7.0544,-21.1336 14.1046,-42.2686 21.1535,-63.404 3.2892,-9.8621 6.5786,-19.7242 9.868,-29.5863 0.3293,-0.9872 0.6586,-1.9744 0.9978,-2.9916 7.8318,-23.4804 15.6652,-46.9602 23.4991,-70.4399 0.3426,-1.0268 0.6852,-2.0536 1.0382,-3.1115 7.9868,-23.9381 15.9741,-47.876 23.9621,-71.8137 2.7681,-8.2954 5.5363,-16.5909 8.3044,-24.8863 0.3417,-1.0238 0.6833,-2.0476 1.0353,-3.1024 7.8112,-23.4083 15.6217,-46.8169 23.4295,-70.2263 0.3289,-0.986 0.6578,-1.9721 0.9966,-2.988 3.285,-9.8493 6.5699,-19.6986 9.8546,-29.54799 1.6164,-4.84714 3.2329,-9.69427 4.8495,-14.54139 0.4771,-1.43071 0.4771,-1.43071 0.9639,-2.89032 5.0989,-15.28829 10.2012,-30.57544 15.3048,-45.86212 5.139,-15.39244 10.2747,-30.78594 15.4072,-46.18052 3.0411,-9.12122 6.0846,-18.24159 9.1319,-27.36073 2.0448,-6.11977 4.0861,-12.24068 6.1249,-18.36244 1.1556,-3.46933 2.3124,-6.93821 3.4734,-10.40569 6.1582,-18.39594 11.9328,-36.88012 17.4909,-55.46415 1.7277,-5.76126 3.4814,-11.51457 5.2361,-17.26765 0.5652,-1.85545 1.1303,-3.71092 1.6953,-5.56641 0.3932,-1.29037 0.7864,-2.58074 1.1797,-3.87109 -0.33,-0.33 -0.66,-0.66 -1,-1 -1.1292,0.98227 -1.1292,0.98227 -2.2812,1.98437 -7.9307,6.83814 -16.1273,13.21219 -24.5591,19.41797 -2.2083,1.63359 -4.4017,3.28562 -6.5933,4.94141 C 1154.4728,814.26218 1098.9509,842.10317 1041,862 c -0.7603,0.26274 -1.5207,0.52547 -2.304,0.79617 -9.293,3.20286 -18.5209,6.15416 -28.1335,8.26633 -1.0827,0.24331 -2.1655,0.48662 -3.281,0.7373 -8.08787,1.78711 -16.205,3.41394 -24.344,4.9502 -1.56609,0.29789 -1.56609,0.29789 -3.16382,0.60181 -3.25218,0.59396 -6.50799,1.13371 -9.77368,1.64819 -1.17732,0.18909 -2.35463,0.37818 -3.56763,0.573 -12.83241,1.79214 -25.66544,1.76467 -38.604,1.74267 -3.8591,-0.003 -7.71742,0.0203 -11.57642,0.0457 C 874.53342,881.46731 833.03921,873.66804 796,854 c -0.66,-0.34402 -1.32,-0.68804 -2,-1.04248 C 779.24713,845.23171 766.01255,835.54755 754,824 c -0.46857,-0.44279 -0.93715,-0.88559 -1.41992,-1.3418 -23.62727,-22.39828 -40.65204,-52.40087 -48.33008,-84.0332 -0.18651,-0.76401 -0.37302,-1.52802 -0.56519,-2.31519 -3.52162,-15.50366 -5.18982,-30.88926 -5.07592,-46.77417 0.0162,-2.66734 -10e-6,-5.33318 -0.019,-8.00048 -0.0142,-11.45996 1.11855,-22.31312 3.41016,-33.53516 0.19868,-1.0066 0.39735,-2.01319 0.60205,-3.05029 C 710.61287,606.30459 729.11286,572.51636 755,543 c 0.79664,-0.92039 1.59328,-1.84078 2.41406,-2.78906 4.55493,-5.18103 9.28599,-9.8053 14.58594,-14.21094 1.28971,-1.12148 1.28971,-1.12148 2.60547,-2.26563 28.71346,-24.64475 63.92301,-42.29394 101.16846,-49.3125 1.46967,-0.27852 2.93696,-0.56995 4.40136,-0.875 C 925.05362,464.28579 978.10405,473.08022 1015,501 Z"
     fill="#010101"
     id="path2" />
  <ellipse
     style="fill:#010101;fill-opacity:1;stroke-width:3.66614"
     id="path4"
     cx="956.78766"
     cy="780.19049"
     rx="47.444016"
     ry="36.900902" />
</svg>
