<?xml version="1.0" standalone="no"?>
<!DOCTYPE svg PUBLIC "-//W3C//DTD SVG 20010904//EN"
 "http://www.w3.org/TR/2001/REC-SVG-20010904/DTD/svg10.dtd">
<svg version="1.0" xmlns="http://www.w3.org/2000/svg"
 width="2000.000000pt" height="1990.000000pt" viewBox="0 0 2000.000000 1990.000000"
 preserveAspectRatio="xMidYMid meet">
<metadata>
Created by potrace 1.16, written by Peter Selinger 2001-2019
</metadata>
<g transform="translate(0.000000,1990.000000) scale(0.100000,-0.100000)"
fill="#000000" stroke="none">
<path d="M12679 14883 c-367 -4 -295 83 -601 -723 -162 -429 -193 -483 -383
-679 -292 -301 -642 -498 -1016 -570 -119 -23 -298 -36 -316 -24 -10 7 -5 30
22 95 66 161 78 225 79 403 0 188 -17 269 -89 423 -64 136 -124 219 -224 314
-107 102 -196 163 -333 227 -187 88 -333 121 -538 121 -713 0 -1271 -537
-1236 -1190 12 -221 85 -426 211 -590 59 -77 197 -207 286 -269 228 -162 579
-278 981 -327 163 -20 559 -23 703 -5 394 48 773 179 1113 383 46 28 86 48 88
45 3 -3 -53 -162 -124 -354 -197 -526 -329 -883 -382 -1035 -61 -170 -75 -198
-148 -289 -302 -381 -702 -641 -1117 -728 -55 -12 -139 -25 -187 -31 -87 -9
-188 -4 -188 10 0 4 15 40 34 81 49 107 78 227 84 351 25 557 -392 1023 -1006
1124 -149 24 -353 15 -502 -24 -151 -39 -256 -81 -359 -142 -117 -70 -178
-119 -274 -220 -139 -148 -230 -319 -273 -515 -23 -107 -24 -341 -1 -443 93
-410 396 -721 860 -881 613 -211 1312 -213 1918 -6 119 41 334 144 494 238 63
37 111 59 113 53 3 -13 -393 -1125 -497 -1393 -39 -100 -84 -209 -100 -242
-62 -121 -243 -315 -416 -443 -254 -188 -496 -296 -770 -343 -113 -19 -311
-26 -308 -10 2 6 19 50 39 99 101 246 102 510 4 765 -39 101 -150 268 -232
349 -260 256 -674 398 -1035 353 -540 -67 -944 -400 -1075 -885 -18 -67 -22
-107 -22 -236 1 -133 5 -168 26 -251 36 -133 79 -233 148 -336 125 -190 295
-339 505 -443 287 -142 613 -218 1017 -239 613 -31 1145 104 1650 421 71 44
98 56 98 43 0 -2 -48 -145 -106 -317 -136 -403 -293 -882 -450 -1378 -69 -217
-163 -512 -209 -655 -101 -314 -279 -877 -449 -1421 -117 -376 -142 -452 -161
-497 -7 -16 13 -17 375 -15 382 3 382 3 465 273 140 454 393 1269 460 1480 35
110 139 436 230 725 634 2002 1269 3885 1827 5415 44 121 115 317 158 435 43
118 138 375 210 570 73 195 169 456 215 580 46 124 104 279 130 345 26 66 74
194 107 285 33 91 100 269 150 395 49 127 152 392 228 590 205 535 420 1086
437 1118 13 26 10 50 -5 45 -4 -2 -154 -4 -333 -5z"/>
<path d="M17662 2791 c2 -7 7 -12 11 -12 12 1 9 15 -3 20 -7 2 -11 -2 -8 -8z"/>
<path d="M17712 2789 c2 -6 8 -10 13 -10 5 0 11 4 13 10 2 6 -4 11 -13 11 -9
0 -15 -5 -13 -11z"/>
<path d="M17640 2709 c0 -11 5 -17 10 -14 6 3 10 13 10 21 0 8 -4 14 -10 14
-5 0 -10 -9 -10 -21z"/>
<path d="M17740 2710 c0 -11 5 -20 10 -20 6 0 10 9 10 20 0 11 -4 20 -10 20
-5 0 -10 -9 -10 -20z"/>
<path d="M17770 2654 c0 -8 5 -12 10 -9 6 3 10 10 10 16 0 5 -4 9 -10 9 -5 0
-10 -7 -10 -16z"/>
<path d="M17615 2650 c3 -5 8 -10 11 -10 2 0 4 5 4 10 0 6 -5 10 -11 10 -5 0
-7 -4 -4 -10z"/>
<path d="M17584 2606 c-8 -22 -2 -27 16 -16 12 7 12 12 3 21 -10 10 -14 9 -19
-5z"/>
<path d="M17795 2610 c-7 -12 2 -30 16 -30 12 0 12 27 0 35 -5 3 -12 1 -16 -5z"/>
<path d="M17426 2447 c-14 -10 -16 -16 -7 -22 15 -9 35 8 30 24 -3 8 -10 7
-23 -2z"/>
<path d="M17952 2438 c6 -18 28 -21 28 -4 0 9 -7 16 -16 16 -9 0 -14 -5 -12
-12z"/>
<path d="M17360 2410 c0 -5 7 -10 15 -10 8 0 15 5 15 10 0 6 -7 10 -15 10 -8
0 -15 -4 -15 -10z"/>
<path d="M18010 2410 c0 -5 5 -10 10 -10 6 0 10 5 10 10 0 6 -4 10 -10 10 -5
0 -10 -4 -10 -10z"/>
<path d="M17302 2388 c3 -7 13 -15 22 -16 12 -3 17 1 14 10 -3 7 -13 15 -22
16 -12 3 -17 -1 -14 -10z"/>
<path d="M18066 2393 c-3 -3 -3 -10 0 -14 7 -12 34 -11 34 0 0 11 -26 22 -34
14z"/>
<path d="M17232 2359 c2 -6 8 -10 13 -10 5 0 11 4 13 10 2 6 -4 11 -13 11 -9
0 -15 -5 -13 -11z"/>
<path d="M18140 2360 c0 -5 7 -10 15 -10 8 0 15 5 15 10 0 6 -7 10 -15 10 -8
0 -15 -4 -15 -10z"/>
<path d="M17237 2313 c-12 -11 -8 -23 8 -23 8 0 15 7 15 15 0 16 -12 20 -23 8z"/>
<path d="M18140 2306 c0 -9 7 -16 16 -16 9 0 14 5 12 12 -6 18 -28 21 -28 4z"/>
<path d="M18067 2294 c-13 -13 -7 -24 14 -24 11 0 19 5 17 12 -5 14 -22 21
-31 12z"/>
<path d="M17300 2280 c0 -5 9 -10 20 -10 11 0 20 5 20 10 0 6 -9 10 -20 10
-11 0 -20 -4 -20 -10z"/>
<path d="M17367 2264 c-8 -8 1 -24 14 -24 5 0 9 7 9 15 0 15 -12 20 -23 9z"/>
<path d="M18016 2263 c-11 -11 -6 -23 9 -23 8 0 15 4 15 9 0 13 -16 22 -24 14z"/>
<path d="M17420 2230 c0 -5 9 -14 21 -20 19 -11 20 -10 9 9 -11 22 -30 29 -30
11z"/>
<path d="M17955 2229 c-4 -6 -5 -13 -2 -16 7 -7 27 6 27 18 0 12 -17 12 -25
-2z"/>
<path d="M17573 2075 c4 -9 7 -19 7 -21 0 -2 7 -4 15 -4 22 0 18 18 -7 31 -18
10 -20 9 -15 -6z"/>
<path d="M17790 2065 c0 -8 7 -15 15 -15 8 0 15 7 15 15 0 8 -7 15 -15 15 -8
0 -15 -7 -15 -15z"/>
<path d="M17610 2004 c0 -8 5 -12 10 -9 6 3 10 10 10 16 0 5 -4 9 -10 9 -5 0
-10 -7 -10 -16z"/>
<path d="M17760 2010 c0 -5 7 -10 15 -10 8 0 15 5 15 10 0 6 -7 10 -15 10 -8
0 -15 -4 -15 -10z"/>
<path d="M17640 1950 c0 -11 5 -20 10 -20 6 0 10 9 10 20 0 11 -4 20 -10 20
-5 0 -10 -9 -10 -20z"/>
<path d="M17740 1955 c0 -8 5 -15 10 -15 6 0 10 7 10 15 0 8 -4 15 -10 15 -5
0 -10 -7 -10 -15z"/>
<path d="M17660 1874 c0 -9 5 -14 12 -12 18 6 21 28 4 28 -9 0 -16 -7 -16 -16z"/>
<path d="M17712 1878 c6 -18 28 -21 28 -4 0 9 -7 16 -16 16 -9 0 -14 -5 -12
-12z"/>
</g>
</svg>
