<?xml version="1.0" standalone="no"?>
<!DOCTYPE svg PUBLIC "-//W3C//DTD SVG 20010904//EN"
 "http://www.w3.org/TR/2001/REC-SVG-20010904/DTD/svg10.dtd">
<svg version="1.0" xmlns="http://www.w3.org/2000/svg"
 width="163.000000pt" height="179.000000pt" viewBox="0 0 163.000000 179.000000"
 preserveAspectRatio="xMidYMid meet">
<metadata>
Created by potrace 1.16, written by Peter Selinger 2001-2019
</metadata>
<g transform="translate(0.000000,179.000000) scale(0.100000,-0.100000)"
fill="#000000" stroke="none">
<path d="M1229 1523 c-5 -14 -26 -64 -46 -110 -31 -72 -41 -87 -74 -104 -21
-10 -47 -19 -59 -19 -18 0 -20 6 -20 53 0 92 -57 147 -152 147 -160 -1 -218
-205 -77 -278 38 -20 55 -23 119 -19 49 2 94 12 128 27 29 12 55 20 58 17 9
-9 -146 -379 -169 -405 -17 -18 -72 -42 -99 -42 -5 0 -8 18 -8 39 0 146 -162
224 -264 127 -112 -105 -27 -266 139 -266 44 0 128 20 163 39 40 21 42 2 6
-82 -20 -45 -77 -183 -126 -306 -87 -213 -90 -225 -72 -238 10 -7 22 -12 27
-10 5 1 45 90 89 197 43 107 101 249 128 315 27 66 86 210 130 320 45 110 117
289 162 398 44 108 77 204 74 212 -9 25 -45 18 -57 -12z"/>
</g>
</svg>
