<?xml version="1.0" encoding="UTF-8" standalone="no"?>
<svg
   version="1.1"
   width="2058"
   height="2048"
   id="svg2"
   xmlns="http://www.w3.org/2000/svg"
   xmlns:svg="http://www.w3.org/2000/svg">
  <defs
     id="defs2" />
  <path
     d="m 893.72843,377.62291 c 5.9662,3.36838 9.9823,8.03539 13.875,13.5625 1.0357,1.42503 2.0722,2.8495 3.1094,4.27343 0.7608,1.05526 0.7608,1.05526 1.5371,2.13184 2.146,2.94974 4.3683,5.83726 6.6035,8.71973 0.8152,1.05592 1.6303,2.11191 2.4453,3.16797 0.8018,1.03769 1.6036,2.07539 2.4297,3.14453 1.6678,2.16579 3.3339,4.33292 5,6.5 0.8385,1.08985 1.6771,2.1797 2.5156,3.26953 1.6159,2.10055 3.2303,4.2023 4.8438,6.30469 7.1724,9.3406 14.4048,18.63418 21.6406,27.92578 8.8182,11.32363 17.6071,22.66794 26.3438,34.05468 1.191,1.55075 1.191,1.55075 2.4062,3.13282 0.404,0.52593 0.8079,1.05187 1.2241,1.59375 2.4371,3.16806 4.8867,6.32593 7.3462,9.47656 5.62197,7.20234 11.21927,14.41622 16.67967,21.74219 5.9593,7.99238 12.075,15.85809 18.2134,23.71338 8.0154,10.25856 15.9982,20.54009 23.8923,30.89233 3.9351,5.15481 7.9068,10.27995 11.8943,15.39429 7.2648,9.32012 14.4399,18.70723 21.6045,28.10449 6.675,8.75253 13.3884,17.47264 20.156,26.15381 5.6378,7.23842 11.2071,14.52831 16.7727,21.82226 2.1487,2.8118 4.3075,5.61578 6.4668,8.41944 2.6787,3.47795 5.3526,6.95925 8.0156,10.44922 6.2103,8.13864 12.4582,16.24558 18.753,24.31909 3.9384,5.05616 7.8452,10.13525 11.7314,15.23169 5.1183,6.71186 10.2851,13.38452 15.4739,20.04199 4.2236,5.42036 8.4167,10.86314 12.5964,16.31738 1.7102,2.21064 3.4307,4.40786 5.1719,6.59375 20.6485,25.93765 20.6485,25.93765 19.2578,41.54688 -1.7496,8.36054 -7.2117,14.60922 -12.4639,21.08984 -2.8939,3.59857 -5.7071,7.2605 -8.5361,10.91016 -1.2081,1.55224 -2.4165,3.10433 -3.625,4.65625 -3.6091,4.64028 -7.1912,9.30077 -10.7695,13.96484 -1.9237,2.50109 -3.8614,4.99076 -5.8047,7.47656 -6.8305,8.73991 -13.5622,17.54255 -20.1897,26.4375 -3.5995,4.81986 -7.2568,9.58442 -10.9837,14.3064 -6.6275,8.39944 -12.7702,17.03413 -18.7446,25.90845 -2.2173,3.29082 -4.5079,6.50768 -6.8828,9.6875 -11.7917,16.07505 -21.939,33.37614 -32,50.56239 -0.5134,0.8713 -1.0267,1.7425 -1.5557,2.6402 -12.1572,20.7703 -21.5075,43.0231 -27.4443,66.3598 -0.223,0.8748 -0.446,1.7496 -0.6758,2.6509 -7.1363,29.3498 -4.7757,60.4751 6.6758,88.3492 0.2939,0.7264 0.5878,1.4528 0.8906,2.2011 10.3651,25.3197 26.3314,47.3685 43.1094,68.7989 0.9819,1.2616 1.9637,2.5233 2.9453,3.7851 7.7779,9.9723 15.7814,19.7448 23.971,29.3814 2.8794,3.393 5.7158,6.8162 8.5212,10.271 4.8995,6.0154 9.9545,11.8917 15.0186,17.7685 2.0049,2.3296 4.0026,4.6652 6.0004,7.0008 12.5001,14.6504 12.5001,14.6504 25.2935,29.0432 2.9886,3.2929 5.8338,6.6631 8.625,10.125 3.6814,4.5536 7.5527,8.8608 11.5386,13.144 3.7812,4.0874 7.2832,8.3613 10.7739,12.6997 2.5122,3.0215 5.1365,5.9057 7.8125,8.7813 4.2896,4.61 8.3041,9.3778 12.2539,14.2851 2.3344,2.8216 4.766,5.5208 7.2461,8.2149 21.4426,23.3404 21.4426,23.3404 21.2773,33.3086 -0.6931,5.4767 -3.0746,9.2341 -7.3398,12.6289 -4.3605,2.3194 -8.05,3.3185 -12.9375,2.5625 -4.2509,-1.4213 -8.3283,-3.2153 -12.4375,-5 -12.669,-5.3283 -25.4196,-9.9841 -38.5625,-14 -0.684,-0.2121 -1.368,-0.4241 -2.0728,-0.6426 -9.8733,-2.9867 -20.0728,-4.4451 -30.2397,-6.0449 -0.6922,-0.109 -1.3844,-0.2179 -2.0977,-0.3302 -36.5336,-5.6959 -75.2246,-5.717 -110.5898,6.0177 -0.6768,0.2241 -1.3535,0.4482 -2.0508,0.6792 -19.3954,6.5686 -37.8772,16.1225 -52.8008,30.313 -2.1484,2.0078 -2.1484,2.0078 -4.58977,3.8632 -3.0507,2.557 -5.449,5.4486 -7.8711,8.5821 -0.4793,0.6183 -0.9586,1.2367 -1.4524,1.8738 -21.1539,27.7188 -30.8581,60.2347 -26.8484,95.0461 6.9707,46.4247 33.5209,84.2714 64.44917,118.2598 1.4334,1.5782 2.8555,3.1667 4.2657,4.7656 8.1511,9.2182 16.7498,18.0931 26.1289,26.0703 2.5097,2.1939 4.8423,4.5432 7.1718,6.9258 1.4118,1.4324 2.8763,2.8125 4.3477,4.1836 4.2219,4.5737 5.95,8.8794 5.7305,15.0586 -1.1417,5.6526 -4.657,9.9462 -9.1055,13.4414 -6.9179,1.9216 -13.9554,2.1218 -20.4102,-1.2735 -1.6935,-1.0259 -3.3687,-2.0824 -5.0273,-3.164 -0.9241,-0.5744 -1.8482,-1.1487 -2.8003,-1.7405 -3.0694,-1.927 -6.1052,-3.8993 -9.1372,-5.8845 -1.0946,-0.7117 -2.1891,-1.4235 -3.3169,-2.1568 -34.70577,-22.6121 -68.28967,-46.8909 -99.83957,-73.7536 -3.4864,-2.9634 -7.0231,-5.8523 -10.5935,-8.7146 -4.2379,-3.4444 -8.1142,-7.0927 -11.8867,-11.0391 -1.979,-1.9561 -3.992,-3.7673 -6.0977,-5.582 -4.4691,-3.8775 -8.657,-7.9977 -12.8281,-12.1914 -0.7161,-0.7122 -1.4321,-1.4244 -2.1699,-2.1582 -4.0703,-4.0778 -7.959,-8.2551 -11.7195,-12.6199 -1.9955,-2.3002 -4.0856,-4.5053 -6.1731,-6.7219 -14.8391,-16.3027 -27.48247,-34.9291 -38.375,-54.0625 -0.37366,-0.6502 -0.74733,-1.3004 -1.13232,-1.9702 -9.73319,-17.0881 -16.70276,-35.5738 -20.93018,-54.7798 -0.24073,-1.0442 -0.24073,-1.0442 -0.48632,-2.1094 -2.7513,-12.3753 -3.83378,-24.609 -3.76368,-37.2656 0.002,-0.7225 0.005,-1.4449 0.008,-2.1892 0.2899,-54.6551 25.48272,-104.378 63.69876,-142.4461 33.897,-32.9536 79.959,-48.5668 126.6062,-48.6147 0.824,0 1.6481,0 2.4971,-0.01 15.33311,0 30.02801,1.6519 45.06541,4.7563 1.0808,0.2213 2.1616,0.4426 3.2752,0.6706 16.4966,3.43 32.2275,8.5141 48.1623,13.9544 -0.6896,-0.7387 -1.3793,-1.4773 -2.0898,-2.2383 -5.4387,-5.8593 -10.6491,-11.8162 -15.6641,-18.0469 -2.3344,-2.8216 -4.766,-5.5207 -7.2461,-8.2148 -3.2742,-3.5567 -6.4064,-7.1716 -9.4375,-10.9375 -3.2219,-3.9948 -6.5691,-7.8081 -10.0625,-11.5625 -4.2895,-4.6101 -8.3041,-9.3779 -12.2539,-14.2852 -3.1289,-3.7819 -6.4613,-7.3624 -9.7852,-10.9726 -2.3713,-2.6424 -4.6134,-5.3492 -6.8359,-8.1172 -3.8665,-4.7956 -7.9735,-9.2938 -12.1809,-13.7864 -3.92301,-4.2127 -7.56311,-8.6027 -11.16681,-13.0925 -2.4956,-3.0093 -5.1149,-5.8855 -7.7773,-8.7461 -3.4516,-3.7086 -6.7652,-7.4851 -9.9375,-11.4375 -3.366,-4.1849 -6.8943,-8.1457 -10.5625,-12.0625 -4.4587,-4.7609 -8.638,-9.6647 -12.7227,-14.754 -2.4956,-3.0092 -5.1149,-5.8854 -7.7773,-8.7461 -4.2692,-4.5875 -8.2576,-9.3344 -12.1875,-14.2187 -2.5122,-3.0215 -5.1365,-5.9057 -7.8125,-8.7813 -3.4742,-3.7333 -6.8007,-7.5237 -10,-11.5 -4.1165,-5.1124 -8.4923,-9.9257 -12.9492,-14.7382 -8.5101,-9.2139 -16.5387,-18.8831 -24.6758,-28.4258 -4.4637,-5.2291 -8.9348,-10.4378 -13.5625,-15.5235 -3.0296,-3.3347 -5.9186,-6.7453 -8.75,-10.25 -3.8619,-4.7753 -7.93924,-9.2991 -12.09765,-13.81635 -3.1725,-3.5345 -6.12896,-7.2223 -9.10547,-10.9218 -2.13109,-2.551 -4.3297,-4.9863 -6.60254,-7.40869 -13.01555,-13.8824 -13.01555,-13.8824 -13.38184,-22.0406 0.60423,-9.64073 6.54699,-14.85629 13.4336,-20.98433 1.30428,-1.13887 2.61181,-2.27403 3.92187,-3.40625 4.25771,-3.72275 8.40774,-7.56391 12.55957,-11.40381 1.15154,-1.0644 2.30457,-2.12719 3.45899,-3.18847 8.79077,-8.08952 17.35607,-16.39361 25.81347,-24.82959 1.3919,-1.38506 1.3919,-1.38506 2.812,-2.7981 4.528,-4.53823 8.9244,-9.12685 13.0989,-13.99267 2.2337,-2.5924 4.5692,-5.08023 6.9016,-7.58423 5.1156,-5.54408 9.8984,-11.30771 14.625,-17.1875 1.0079,-1.2289 2.0171,-2.4567 3.0273,-3.6836 17.8813,-21.75163 34.3206,-44.64786 47.9727,-69.3164 0.4579,-0.8163 0.9159,-1.6326 1.3877,-2.47364 6.5228,-11.70974 12.1298,-23.65914 17.1123,-36.08886 0.4923,-1.22357 0.9845,-2.44713 1.4917,-3.70777 4.9981,-12.75062 8.3908,-25.49082 10.6958,-38.97973 0.2121,-1.18852 0.4241,-2.37703 0.6426,-3.60157 11.07911,-63.32913 -12.3713,-125.79434 -45.3301,-179.14843 -0.4836,-0.7844 -0.9671,-1.56879 -1.4653,-2.37696 -19.9956,-32.26195 -41.7429,-63.77774 -65.0347,-93.74804 -12.0314,-15.53978 -12.0314,-15.53978 -11.9023,-24.33203 0.9965,-6.2988 4.91,-11.86884 9.9648,-15.66797 5.352,-2.86605 11.592,-3.20663 17.4375,-1.875 z"
     fill="#000100"
     id="path2" />
</svg>
