<?xml version="1.0" standalone="no"?>
<!DOCTYPE svg PUBLIC "-//W3C//DTD SVG 20010904//EN"
 "http://www.w3.org/TR/2001/REC-SVG-20010904/DTD/svg10.dtd">
<svg version="1.0" xmlns="http://www.w3.org/2000/svg"
 width="260.000000pt" height="254.000000pt" viewBox="0 0 260.000000 254.000000"
 preserveAspectRatio="xMidYMid meet">
<metadata>
Created by potrace 1.16, written by Peter Selinger 2001-2019
</metadata>
<g transform="translate(0.000000,254.000000) scale(0.100000,-0.100000)"
fill="#000000" stroke="none">
<path d="M1280 1434 c0 -729 -2 -845 -14 -841 -100 39 -252 -14 -344 -119 -87
-97 -80 -209 15 -255 91 -44 233 -5 327 89 82 82 81 73 84 455 2 229 6 337 14
337 25 0 137 -70 191 -119 86 -80 110 -127 115 -225 4 -68 0 -93 -22 -159 -15
-43 -24 -83 -21 -88 12 -18 25 -9 45 31 33 64 59 196 60 300 2 210 2 232 2
425 0 41 1 101 1 133 0 31 0 93 0 137 1 106 -24 168 -110 274 -38 45 -90 111
-116 144 -52 67 -143 241 -153 295 -6 28 -10 32 -40 32 -34 0 -34 0 -34 -846z
m169 432 c76 -56 179 -170 206 -228 15 -32 25 -71 25 -98 -1 -45 -1 -45 -66
25 -90 96 -150 178 -190 257 -47 94 -46 96 25 44z m-8 -258 c24 -17 77 -64
116 -103 83 -82 123 -156 123 -224 0 -45 0 -45 -31 -15 -80 74 -192 215 -229
285 -22 42 -40 80 -40 83 0 13 19 5 61 -26z m81 -336 c91 -69 147 -161 148
-242 0 -44 0 -44 -61 15 -106 104 -209 247 -209 289 0 16 3 16 38 -4 20 -12
58 -38 84 -58z"/>
</g>
</svg>
