<?xml version="1.0" encoding="UTF-8" standalone="no"?>
<svg
   version="1.1"
   width="1696"
   height="2528"
   id="svg2192"
   xmlns="http://www.w3.org/2000/svg"
   xmlns:svg="http://www.w3.org/2000/svg">
  <defs
     id="defs2192" />
  <path
     d="m 887.97167,98.478767 c 20.46,0 40.92,0 62,0 0.6806,6.682503 1.3613,13.365003 2.0625,20.250003 2.2116,20.52952 5.4907,40.59496 9.9375,60.75 0.2274,1.07266 0.4547,2.14532 0.689,3.25049 14.3413,67.09887 48.34103,130.80578 91.31103,183.74951 1.0461,1.30904 1.0461,1.30904 2.1133,2.64453 4.8909,6.07235 10.0162,11.85494 15.3164,17.56641 2.1511,2.33416 4.2496,4.69653 6.3203,7.10156 2.7065,3.12538 5.5714,6.02965 8.5196,8.92578 1.7249,1.75614 3.3222,3.57537 4.9179,5.44922 6.6818,7.73522 14.0382,14.91939 21.8203,21.53906 2.4316,2.16458 4.7043,4.45774 6.9922,6.77344 3.4444,3.4809 6.9533,6.77504 10.6719,9.95703 3.1708,2.78243 6.2451,5.66404 9.3281,8.54297 5.4186,5.04999 10.8978,9.99596 16.5303,14.80713 1.7819,1.52221 3.5634,3.04494 5.3447,4.56787 0.6089,0.51998 1.2177,1.03995 1.845,1.57569 3.537,3.02876 7.0243,6.10111 10.4675,9.23681 4.2396,3.85101 8.6418,7.46094 13.0938,11.0625 3.5021,2.89829 6.8449,5.95311 10.2031,9.01563 2.5289,2.24619 5.1261,4.36968 7.7656,6.48437 5.7595,4.65659 11.1295,9.67834 16.5274,14.74219 3.0459,2.85508 6.158,5.62146 9.3164,8.35156 4.0208,3.49355 7.9591,7.07989 11.9062,10.65625 0.9745,0.88043 1.9491,1.76086 2.9531,2.66797 5.6603,5.13576 11.1691,10.36551 16.5,15.84766 2.0549,2.00444 4.1368,3.88158 6.3086,5.7539 4.4598,3.86961 8.6384,7.98292 12.8008,12.16797 0.7161,0.71221 1.4322,1.42442 2.1699,2.15821 4.0423,4.04966 7.9042,8.19699 11.6394,12.531 2.43,2.79575 4.9695,5.48452 7.5032,8.18579 4.462,4.79612 8.6929,9.71591 12.793,14.82813 2.1588,2.64695 4.3749,5.22569 6.6208,7.79809 6.4365,7.38736 12.3911,15.05265 18.1726,22.9607 1.554,2.12158 3.1219,4.23234 4.691,6.34277 12.4181,16.81887 23.5866,34.54643 33.8476,52.75781 0.515,0.91105 1.03,1.82209 1.5606,2.76074 18.869,33.60979 33.9937,69.10924 44.4394,106.23926 0.2288,0.79455 0.4576,1.58909 0.6934,2.40772 21.1542,73.77601 20.7411,155.13146 1.855,229.42231 -0.512,2.0259 -0.9948,4.0561 -1.4664,6.0917 -4.8912,20.5904 -11.5153,40.6863 -18.332,60.7032 -0.3039,0.8958 -0.6079,1.7916 -0.9211,2.7145 -0.8804,2.5892 -1.7674,5.176 -2.657,7.762 -0.2602,0.7647 -0.5205,1.5295 -0.7886,2.3173 -1.8643,5.3782 -4.0515,10.3346 -6.3833,15.5812 -12.54,0 -25.08,0 -38,0 2.185,-9.8324 2.185,-9.8324 3.75,-14.5 16.5654,-53.2548 22.2902,-112.1351 15.25,-167.49993 -0.234,-1.86012 -0.234,-1.86012 -0.4726,-3.75781 -6.314,-49.08031 -21.3733,-95.05575 -43.5274,-139.24219 -0.4317,-0.86593 -0.8633,-1.73185 -1.3081,-2.62402 -12.0477,-24.02006 -27.3612,-46.09395 -43.6919,-67.37598 -0.6961,-0.90879 -0.6961,-0.90879 -1.4062,-1.83594 -12.1968,-15.8697 -25.2652,-31.17309 -39.5938,-45.16406 -1.6667,-1.66666 -3.3333,-3.33333 -5,-5 -0.8972,-0.83531 -0.8972,-0.83531 -1.8125,-1.6875 -1.1875,-1.3125 -1.1875,-1.3125 -1.1875,-3.3125 -0.5414,-0.21269 -1.0828,-0.42539 -1.6406,-0.64453 -3.2128,-1.84575 -5.5644,-4.39547 -8.1094,-7.04297 -4.5819,-4.66881 -9.2522,-9.08762 -14.25,-13.3125 -1.5596,-1.34868 -3.1192,-2.69736 -4.6787,-4.04614 -34.1924,-29.47932 -70.7659,-56.10239 -110.3213,-77.95386 -0.8904,-0.49596 -1.7808,-0.99193 -2.6982,-1.50293 -28.0905,-15.63708 -56.9808,-29.70487 -87.3018,-40.49707 -1.299,-0.48617 -2.5971,-0.97457 -3.8945,-1.46484 -4.1189,-1.5505 -8.26423,-3.01873 -12.41803,-4.47266 -4.6684,-1.63445 -9.3172,-3.2957 -13.9375,-5.0625 -10.2336,-3.75445 -21.0377,-6.95781 -31.75,-9 0.1212,1.10731 0.2424,2.21461 0.3672,3.35547 0.9444,8.90989 1.7231,17.79843 2.2334,26.74463 1.458,24.68195 5.6387,48.75076 10.4619,72.9624 0.2484,1.24882 0.2484,1.24882 0.5018,2.52286 4.5458,22.71453 10.7322,44.75896 18.0607,66.72714 0.2579,0.77342 0.5158,1.54684 0.7815,2.34369 8.0675,24.10695 17.5628,47.43273 28.59353,70.34381 0.4588,0.956 0.9175,1.912 1.3902,2.89697 12.8518,26.63389 27.6618,52.45197 45.2524,76.25831 1.5436,2.0978 3.0676,4.2093 4.5918,6.32128 7.3976,10.20311 15.1349,20.03549 23.2349,29.68848 2.1239,2.54602 4.2001,5.12842 6.2807,7.70996 3.8198,4.67882 7.8413,9.14513 11.9297,13.58985 1.8931,2.06841 3.7428,4.15921 5.5703,6.28515 10.5853,12.13768 21.9217,23.58363 33.3203,34.95069 2.3267,2.32128 4.648,4.64794 6.9688,6.97509 1.5049,1.50423 3.0101,3.00815 4.5156,4.51172 0.6804,0.6824 1.3608,1.3648 2.0617,2.06787 3.9089,3.89009 7.9196,7.60061 12.1078,11.18901 3.2359,2.8346 6.1992,5.9357 9.1977,9.0166 3.3659,3.4201 6.8879,6.5923 10.5166,9.7314 3.3928,2.975 6.659,6.08185 9.9365,9.18255 4.3584,4.1058 8.7206,8.1994 13.1875,12.1875 5.4169,4.8371 10.7123,9.8008 16.0117,14.7656 2.5565,2.3949 5.1213,4.7802 7.6954,7.1562 7.1898,6.6487 14.2027,13.4324 21.0888,20.3956 3.0393,3.0618 6.0838,6.0319 9.3916,8.8076 3.8514,3.2511 7.17,6.9537 10.5352,10.6911 3.0616,3.3929 6.2097,6.6608 9.4648,9.8714 4.1323,4.0934 7.9826,8.3222 11.75,12.75 0.9029,1.0397 1.8066,2.0787 2.711,3.1172 6.4939,7.4799 12.7287,15.1172 18.788,22.9521 1.627,2.0928 3.27,4.1724 4.9151,6.251 7.1281,9.0346 13.9179,18.2076 20.311,27.7768 1.2407,1.8518 2.4959,3.6928 3.7554,5.5318 10.803,15.8613 20.4074,32.4914 29.5195,49.3711 0.4638,0.8537 0.9275,1.7073 1.4053,2.5869 19.9345,36.8461 36.8415,77.0955 46.5127,117.9521 0.9174,3.864 1.9966,7.6583 3.1445,11.461 2.3338,8.0137 3.8787,16.1585 5.4331,24.3515 0.5038,2.6452 1.0202,5.2876 1.5396,7.9297 1.0236,5.2333 2.0035,10.4738 2.9648,15.7188 0.2069,1.1086 0.2069,1.1086 0.418,2.2397 5.0183,27.3086 6.0758,54.9229 5.9046,82.6131 -0.014,2.9664 -0.01,5.9327 0,8.8991 0.031,24.3135 -1.6032,48.1635 -5.0069,72.2481 -0.1281,0.9155 -0.2563,1.8311 -0.3883,2.7744 -2.4435,17.308 -5.7732,34.2497 -9.9242,51.2256 -0.2743,1.1474 -0.5485,2.2948 -0.8311,3.477 -13.2232,55.0334 -34.9196,108.0243 -60.1689,158.523 -12.87,0 -25.74,0 -39,0 0.971,-4.8553 2.6319,-8.576 4.8125,-12.9375 9.377,-19.3501 16.7677,-39.6268 24.125,-59.8125 0.4037,-1.0991 0.4037,-1.0991 0.8155,-2.2205 3.484,-9.512 6.4848,-19.0607 9.0917,-28.8501 0.9911,-3.6812 2.1371,-7.298 3.3279,-10.919 7.7183,-23.497 11.4497,-48.6289 15.2024,-73.0104 0.1213,-0.7844 0.2426,-1.5688 0.3676,-2.3769 3.6263,-23.6565 5.4741,-47.1903 5.4449,-71.1231 -6e-4,-0.919 -10e-4,-1.838 0,-2.7848 -0.059,-33.474 -3.2278,-66.3831 -11.4167,-98.9057 -0.7429,-2.9556 -1.459,-5.9167 -2.1713,-8.8798 -10.9216,-44.5528 -30.387,-87.5372 -56.5977,-125.1797 -0.3837,-0.5535 -0.7673,-1.107 -1.1626,-1.6773 -5.6109,-8.0705 -11.4935,-15.8072 -17.8374,-23.3227 -0.8974,-1.0727 -1.7945,-2.1457 -2.6914,-3.2188 -8.9439,-10.6576 -18.2263,-20.8857 -28.0645,-30.7224 -1.6155,-1.6177 -3.2229,-3.2433 -4.83,-4.8694 -5.6991,-5.7297 -11.5112,-11.0798 -17.845,-16.1179 -2.4795,-1.9993 -4.8513,-4.0764 -7.2136,-6.2122 -28.577,-25.6351 -63.7044,-45.3761 -97.4102,-63.2905 -2.8109,-1.4973 -5.6128,-3.0104 -8.414,-4.5259 -15.8381,-8.4948 -32.1404,-15.9026 -48.5664,-23.1731 -1.8388,-0.814 -3.6766,-1.6307 -5.5142,-2.4475 -33.2109,-14.7027 -67.3082,-27.2714 -101.47373,-39.5499 -6.5465,-2.3531 -13.0857,-4.7256 -19.62272,-7.1048 -1.0027,-0.3648 -2.0054,-0.7296 -3.0385,-1.1055 -2.4386,-0.8872 -4.8772,-1.7746 -7.3158,-2.6621 5e-4,0.803 0.001,1.6061 0,2.4335 0.051,87.4463 0.098,174.8926 0.1256,262.3389 5e-4,1.3066 9e-4,2.6132 0,3.9594 0.01,27.7057 0.017,55.4115 0.024,83.1172 0,13.9184 0.01,27.8368 0.012,41.7551 6e-4,2.0995 0,4.199 0,6.2985 0.01,32.3125 0.021,64.6251 0.04,96.9376 4e-4,0.6943 8e-4,1.3886 0,2.1039 0.01,11.1928 0.013,22.3856 0.02,33.5785 0.02,32.2558 0.038,64.5115 0.046,96.7673 2e-4,0.6639 4e-4,1.3279 5e-4,2.0119 0,13.9233 0.01,27.8466 0.01,41.7699 8e-4,6.5213 0,13.0426 0,19.5639 2e-4,1.2835 4e-4,2.5669 6e-4,3.8893 0,20.6454 0.017,41.2907 0.035,61.9361 0.018,20.7646 0.024,41.5291 0.02,62.2937 0,12.3307 0,24.6614 0.022,36.9922 0.011,8.2474 0.012,16.4947 0,24.7421 0,4.6926 0,9.385 0.01,14.0775 0.05,18.3434 0,36.3271 -3.3747,54.4335 -0.3032,1.7 -0.606,3.4 -0.9086,5.1001 -9.3225,51.861 -38.686,100.0789 -72.0914,139.8999 -0.4152,0.4992 -0.8304,0.9985 -1.2582,1.5129 -7.326,8.7947 -15.0358,17.0713 -23.1705,25.1216 -1.8396,1.8211 -3.6708,3.6502 -5.501,5.4807 -5.8567,5.8392 -11.7599,11.5329 -18.0703,16.8848 -1.1341,1.0087 -2.2657,2.0204 -3.3945,3.0351 -9.0558,8.0559 -18.566,15.3159 -28.4072,22.3838 -1.9462,1.3998 -3.8828,2.8113 -5.8155,4.2295 -37.5308,27.395 -78.8107,49.4912 -122.0078,66.4766 -0.687,0.2702 -1.3741,0.5404 -2.082,0.8188 -7.4516,2.9175 -14.9356,5.6492 -22.5488,8.1216 -2.6074,0.888 -5.1316,1.884 -7.6739,2.9424 -5.9313,2.4212 -12.0319,4.141 -18.1953,5.8672 -1.2321,0.3466 -2.4642,0.6932 -3.7336,1.0503 -3.7109,1.0359 -7.4251,2.0585 -11.1414,3.0747 -1.5374,0.4225 -1.5374,0.4225 -3.1059,0.8535 -41.3314,11.226 -84.0531,16.5503 -126.834,16.4072 -3.821,-0.011 -7.6415,0 -11.4624,0.013 -14.3131,0.01 -28.393,-0.4771 -42.5977,-2.2734 -0.7118,-0.089 -1.4237,-0.1783 -2.1571,-0.2702 -4.5642,-0.5851 -9.1101,-1.261 -13.6554,-1.9798 -0.6745,-0.1064 -1.349,-0.2128 -2.0439,-0.3224 -51.3759,-8.1821 -103.4849,-28.5481 -141.9912,-64.4276 -1.9811,-1.8408 -4.0168,-3.5773 -6.0899,-5.3125 -20.8068,-18.315 -35.0283,-42.5722 -46.0625,-67.6875 -0.388,-0.8779 -0.776,-1.7557 -1.1758,-2.6602 -5.843,-13.8743 -8.4443,-28.5552 -10.8242,-43.3398 -0.2669,-1.5745 -0.2669,-1.5745 -0.5393,-3.1807 -0.5623,-4.6621 -0.642,-9.241 -0.6638,-13.9326 -0.01,-0.9684 -0.011,-1.9369 -0.017,-2.9346 -0.01,-2.0483 -0.016,-4.0965 -0.02,-6.1448 -0.01,-3.0721 -0.041,-6.1435 -0.072,-9.2155 -0.066,-12.1968 0.8228,-23.6526 3.3125,-35.5918 0.2903,-1.4726 0.2903,-1.4726 0.5864,-2.9749 4.2606,-20.7919 11.2144,-40.9198 20.4136,-60.0251 0.3194,-0.6691 0.6387,-1.3381 0.9678,-2.0274 2.2577,-4.7034 4.6127,-9.3505 7.0322,-13.9726 0.5523,-1.0589 0.5523,-1.0589 1.1157,-2.1392 8.9793,-17.0656 19.8526,-32.811 31.8843,-47.8608 1.0867,-1.3593 1.0867,-1.3593 2.1953,-2.7461 2.2447,-2.7716 4.5215,-5.5141 6.8047,-8.2539 0.8108,-0.9978 1.6217,-1.9955 2.4571,-3.0235 6.5041,-7.8918 13.5667,-15.1887 20.7929,-22.414 0.4716,-0.4725 0.9432,-0.945 1.4291,-1.4318 5.0682,-5.0671 10.1924,-10.0116 15.6315,-14.6798 2.1529,-1.849 4.2298,-3.7755 6.3144,-5.7009 5.6106,-5.0555 11.5077,-9.684 17.4888,-14.2876 1.8491,-1.4337 3.6794,-2.8886 5.5073,-4.3491 29.9233,-23.6805 63.3216,-43.1031 97.3789,-60.1133 0.9576,-0.4828 1.9152,-0.9655 2.9019,-1.4629 31.6388,-15.8833 65.3487,-28.7748 99.561,-37.8604 1.6861,-0.4497 3.3698,-0.9087 5.0508,-1.3769 71.9922,-20.0405 152.4132,-25.3094 225.4863,-8.2998 1.6952,0.3716 3.3905,0.7427 5.086,1.1133 38.7731,8.78 75.9431,27.0724 106.914,51.8867 3.3,2.64 6.6,5.28 10,8 0,-567.27 0,-1134.53993 0,-1718.999933 z"
     fill="#000000"
     id="path3" />
</svg>
